<?xml version="1.0" encoding="utf-8"?>
<!-- Generator: Adobe Illustrator 21.1.0, SVG Export Plug-In . SVG Version: 6.00 Build 0)  -->
<svg version="1.1" id="Calque_1" xmlns="http://www.w3.org/2000/svg" xmlns:xlink="http://www.w3.org/1999/xlink" x="0px" y="0px"
	 viewBox="0 0 137 124" style="enable-background:new 0 0 137 124;" xml:space="preserve">
<style type="text/css">
	.st0{fill:#E06C75;}
	.st1{fill:none;stroke:#E06C75;stroke-width:4;stroke-miterlimit:10;}
	.st2{fill-rule:evenodd;clip-rule:evenodd;fill:none;stroke:#E06C75;stroke-width:4;stroke-miterlimit:10;}
</style>
<g>
	<g>
		<path class="st0" d="M105.1,43c15.4,0,27.9,12.5,27.9,27.9v21.2c0,15.4-12.5,27.9-27.9,27.9H31.9C16.5,120,4,107.5,4,92.1V70.9
			C4,55.5,16.5,43,31.9,43H105.1 M105.1,39H31.9C14.4,39,0,53.4,0,70.9v21.2C0,109.6,14.4,124,31.9,124h73.2
			c17.6,0,31.9-14.4,31.9-31.9V70.9C137,53.4,122.6,39,105.1,39L105.1,39z"/>
	</g>
	<g>
		<g>
			<path class="st0" d="M43,62c3.3,0,6,2.7,6,6s-2.7,6-6,6s-6-2.7-6-6S39.7,62,43,62 M43,58c-5.5,0-10,4.5-10,10s4.5,10,10,10
				s10-4.5,10-10S48.5,58,43,58L43,58z"/>
		</g>
		<g>
			<path class="st0" d="M93,62c3.3,0,6,2.7,6,6s-2.7,6-6,6s-6-2.7-6-6S89.7,62,93,62 M93,58c-5.5,0-10,4.5-10,10s4.5,10,10,10
				s10-4.5,10-10S98.5,58,93,58L93,58z"/>
		</g>
	</g>
	<g>
		<path class="st1" d="M104.9,103H31.1c-1.4,0-2.3-1.5-1.7-2.8l4.9-9.2c0.3-0.6,1-1,1.7-1h62c0.6,0,1.2,0.3,1.5,0.8l6.8,9.2
			C107.3,101.2,106.4,103,104.9,103z"/>
		<line class="st1" x1="39" y1="90" x2="39" y2="103"/>
		<line class="st1" x1="51" y1="90" x2="51" y2="103"/>
		<line class="st1" x1="62" y1="90" x2="62" y2="103"/>
		<line class="st1" x1="73" y1="90" x2="73" y2="103"/>
		<line class="st1" x1="84" y1="90" x2="84" y2="103"/>
		<line class="st1" x1="96" y1="91" x2="96" y2="104"/>
	</g>
	<g>
		<g>
			<g>
				<line class="st1" x1="46.4" y1="40.8" x2="27.9" y2="16.6"/>
			</g>
			<circle class="st2" cx="23.5" cy="10.5" r="6.5"/>
		</g>
		<polyline class="st1" points="29.9,10.5 36.5,4 38.1,10.5 47.1,7.3 52,10.5 57.7,4 61.8,8.9 67.5,7.3 71.6,11.4 75.7,6.5 
			81.4,10.5 88,4.8 92.9,10.5 98.6,6.5 105.9,10.5 		"/>
		<g>
			<g>
				<line class="st1" x1="89.6" y1="40.8" x2="108.1" y2="16.6"/>
			</g>
			<circle class="st2" cx="112.5" cy="10.5" r="6.5"/>
		</g>
	</g>
</g>
</svg>
